<svg width="21" height="22" viewBox="0 0 21 22" fill="none" xmlns="http://www.w3.org/2000/svg">
<path d="M15.5106 21.9734C16.51 21.9734 17.3202 21.1632 17.3202 20.1638C17.3202 19.1644 16.51 18.3542 15.5106 18.3542C14.5112 18.3542 13.7011 19.1644 13.7011 20.1638C13.7011 21.1632 14.5112 21.9734 15.5106 21.9734Z" fill="white"/>
<path d="M7.23829 21.9734C8.23769 21.9734 9.04787 21.1632 9.04787 20.1638C9.04787 19.1644 8.23769 18.3542 7.23829 18.3542C6.23889 18.3542 5.42872 19.1644 5.42872 20.1638C5.42872 21.1632 6.23889 21.9734 7.23829 21.9734Z" fill="white"/>
<path d="M3.71221 2.78157L3.5054 5.31498C3.46404 5.80097 3.84664 6.20425 4.33264 6.20425H20.1638C20.5981 6.20425 20.96 5.87336 20.991 5.43906C21.1255 3.60881 19.7295 2.11979 17.8993 2.11979H5.19089C5.08749 1.66481 4.88068 1.23051 4.56012 0.868595C4.0431 0.320553 3.31927 0 2.57476 0H0.775531C0.351574 0 0 0.351574 0 0.775531C0 1.19949 0.351574 1.55106 0.775531 1.55106H2.57476C2.89532 1.55106 3.19519 1.68549 3.41234 1.91298C3.62949 2.15081 3.73289 2.46102 3.71221 2.78157Z" fill="white"/>
<path d="M19.9156 7.75531H4.05344C3.61914 7.75531 3.26756 8.08621 3.2262 8.51016L2.85395 13.0082C2.70918 14.7765 4.0948 16.2862 5.86301 16.2862H17.3616C18.9126 16.2862 20.2776 15.0143 20.3913 13.4632L20.7325 8.63425C20.7739 8.15859 20.4016 7.75531 19.9156 7.75531Z" fill="white"/>
</svg>
